<svg width="10" height="8" viewBox="0 0 10 8" fill="none" xmlns="http://www.w3.org/2000/svg">
<path d="M9.49999 0.500191L0.499988 0.500192C0.408867 0.500477 0.31955 0.525609 0.24165 0.572881C0.16375 0.620152 0.100217 0.687774 0.0578903 0.768468C0.0155633 0.849162 -0.00395455 0.939872 0.00143658 1.03083C0.00682866 1.12179 0.0369257 1.20956 0.088488 1.28469L4.58849 7.78469C4.77499 8.05419 5.22399 8.05419 5.41099 7.78469L9.91099 1.28469C9.96307 1.20972 9.99362 1.12191 9.9993 1.03079C10.005 0.93968 9.9856 0.848752 9.94323 0.767887C9.90087 0.687023 9.83715 0.619314 9.75901 0.572119C9.68086 0.524924 9.59128 0.500047 9.49999 0.500191Z" fill="#878489"/>
</svg>
