<svg  viewBox="0 0 30 30" fill="none" xmlns="http://www.w3.org/2000/svg">
<path d="M15 0.833496C7.18851 0.833496 0.833344 7.18866 0.833344 15.0002C0.833344 22.8117 7.18851 29.1668 15 29.1668C22.8115 29.1668 29.1667 22.8117 29.1667 15.0002C29.1667 7.18866 22.8115 0.833496 15 0.833496ZM16.4167 23.5002H13.5833V20.6668H16.4167V23.5002ZM17.7993 16.5797C17.5217 16.8036 17.2539 17.0175 17.0414 17.23C16.4634 17.8066 16.4181 18.3307 16.4167 18.3534V18.5418H13.5833V18.3052C13.5833 18.1381 13.6244 16.6378 15.0368 15.2254C15.3131 14.9492 15.6559 14.6687 16.0158 14.3768C17.0556 13.5339 17.7384 12.9191 17.7384 12.0719C17.722 11.3562 17.4261 10.6754 16.914 10.1752C16.402 9.67489 15.7145 9.3949 14.9986 9.39508C14.2827 9.39527 13.5954 9.67562 13.0836 10.1762C12.5718 10.6767 12.2763 11.3576 12.2602 12.0733H9.42684C9.42684 9.00058 11.9273 6.50016 15 6.50016C18.0728 6.50016 20.5732 9.00058 20.5732 12.0733C20.5732 14.3357 18.9029 15.6858 17.7993 16.5797Z" fill="#878489"/>
</svg>
