<svg width="34" height="34" viewBox="0 0 34 34" fill="none" xmlns="http://www.w3.org/2000/svg">
<path d="M20.806 17C20.806 17.7527 20.5827 18.4886 20.1645 19.1145C19.7463 19.7404 19.1519 20.2282 18.4565 20.5162C17.761 20.8043 16.9958 20.8797 16.2575 20.7328C15.5192 20.586 14.8411 20.2235 14.3088 19.6912C13.7765 19.1589 13.414 18.4808 13.2672 17.7425C13.1203 17.0042 13.1957 16.239 13.4838 15.5435C13.7718 14.8481 14.2596 14.2537 14.8855 13.8355C15.5114 13.4173 16.2473 13.194 17 13.194C18.0088 13.1958 18.9759 13.5974 19.6892 14.3108C20.4026 15.0241 20.8042 15.9911 20.806 17ZM25 13.5957V20.4043C24.9986 21.6227 24.514 22.7909 23.6524 23.6524C22.7909 24.514 21.6227 24.9986 20.4043 25H13.5957C12.3773 24.9986 11.2091 24.514 10.3476 23.6524C9.48598 22.7909 9.00135 21.6227 9 20.4043V13.5957C9.00135 12.3773 9.48598 11.2091 10.3476 10.3476C11.2091 9.48598 12.3773 9.00135 13.5957 9H20.4043C21.6227 9.00135 22.7909 9.48598 23.6524 10.3476C24.514 11.2091 24.9986 12.3773 25 13.5957ZM23.9787 13.5957C23.9776 12.6481 23.6007 11.7395 22.9306 11.0694C22.2605 10.3993 21.3519 10.0224 20.4043 10.0213H13.5957C12.6481 10.0224 11.7395 10.3993 11.0694 11.0694C10.3993 11.7395 10.0224 12.6481 10.0213 13.5957V20.4043C10.0224 21.3519 10.3993 22.2605 11.0694 22.9306C11.7395 23.6007 12.6481 23.9776 13.5957 23.9787H20.4043C21.3519 23.9776 22.2605 23.6007 22.9306 22.9306C23.6007 22.2605 23.9776 21.3519 23.9787 20.4043V13.5957ZM22.3583 12.1013C22.3369 12.0501 22.3107 12.0011 22.28 11.9549C22.2477 11.9095 22.2125 11.8663 22.1745 11.8255C22.1337 11.7874 22.0904 11.7522 22.0448 11.72C21.9987 11.6892 21.9498 11.663 21.8987 11.6417C21.8469 11.6212 21.7933 11.6053 21.7387 11.594C21.6283 11.5737 21.5152 11.5737 21.4048 11.594C21.3501 11.6048 21.2967 11.6207 21.2451 11.6417C21.1939 11.663 21.1449 11.6892 21.0987 11.72C21.0526 11.7513 21.0093 11.7866 20.9694 11.8255C20.9312 11.8662 20.896 11.9094 20.8638 11.9549C20.8331 12.0011 20.8069 12.0501 20.7855 12.1013C20.7646 12.153 20.7485 12.2066 20.7375 12.2613C20.7153 12.3714 20.7153 12.4848 20.7375 12.5949C20.7485 12.6496 20.7646 12.7032 20.7855 12.7549C20.8069 12.8061 20.8331 12.8551 20.8638 12.9013C20.896 12.9468 20.9312 12.99 20.9694 13.0306C21.0093 13.0695 21.0526 13.1049 21.0987 13.1362C21.1449 13.167 21.1939 13.1932 21.2451 13.2145C21.2967 13.2354 21.3501 13.2514 21.4048 13.2621C21.5149 13.2848 21.6286 13.2848 21.7387 13.2621C21.7933 13.2509 21.8469 13.235 21.8987 13.2145C21.9498 13.1932 21.9987 13.167 22.0448 13.1362C22.0904 13.104 22.1337 13.0687 22.1745 13.0306C22.2125 12.9899 22.2477 12.9467 22.28 12.9013C22.3422 12.8087 22.3851 12.7045 22.406 12.5949C22.4287 12.4848 22.4287 12.3713 22.406 12.2613C22.3953 12.2065 22.3793 12.1529 22.3583 12.1013Z" fill="white"/>
<circle cx="17" cy="17" r="16.5" stroke="white"/>
</svg>
