<svg  viewBox="0 0 30 32" fill="none" xmlns="http://www.w3.org/2000/svg">
<path d="M15 0.333496C13.3518 0.333496 11.7407 0.822237 10.3702 1.73792C8.99984 2.65359 7.93173 3.95508 7.301 5.4778C6.67027 7.00052 6.50525 8.67607 6.82679 10.2926C7.14833 11.9091 7.94201 13.3939 9.10744 14.5594C10.2729 15.7248 11.7577 16.5185 13.3742 16.84C14.9908 17.1616 16.6663 16.9966 18.189 16.3658C19.7117 15.7351 21.0132 14.667 21.9289 13.2966C22.8446 11.9262 23.3333 10.315 23.3333 8.66683C23.3333 6.45669 22.4554 4.33708 20.8926 2.77427C19.3298 1.21147 17.2101 0.333496 15 0.333496ZM15 13.6668C14.0111 13.6668 13.0444 13.3736 12.2221 12.8242C11.3999 12.2748 10.759 11.4939 10.3806 10.5802C10.0022 9.66662 9.90315 8.66128 10.0961 7.69138C10.289 6.72147 10.7652 5.83056 11.4645 5.1313C12.1637 4.43203 13.0546 3.95583 14.0245 3.7629C14.9945 3.56998 15.9998 3.66899 16.9134 4.04743C17.827 4.42587 18.6079 5.06673 19.1573 5.88898C19.7068 6.71122 20 7.67792 20 8.66683C20 9.99291 19.4732 11.2647 18.5355 12.2024C17.5979 13.14 16.3261 13.6668 15 13.6668ZM30 32.0002V30.3335C30 27.2393 28.7708 24.2718 26.5829 22.0839C24.395 19.896 21.4275 18.6668 18.3333 18.6668H11.6667C8.57247 18.6668 5.60501 19.896 3.41709 22.0839C1.22916 24.2718 0 27.2393 0 30.3335V32.0002H3.33333V30.3335C3.33333 28.1234 4.21131 26.0037 5.77411 24.4409C7.33691 22.8781 9.45653 22.0002 11.6667 22.0002H18.3333C20.5435 22.0002 22.6631 22.8781 24.2259 24.4409C25.7887 26.0037 26.6667 28.1234 26.6667 30.3335V32.0002H30Z" fill="#37313A"/>
</svg>
