<svg  viewBox="0 0 21 21" fill="none" xmlns="http://www.w3.org/2000/svg">
<path d="M19.25 19.2502L15.1378 15.1307M9.62498 6.41683V9.62516M9.62498 9.62516V12.8335M9.62498 9.62516H12.8333M9.62498 9.62516H6.41665M17.4166 9.62516C17.4166 11.6916 16.5957 13.6735 15.1345 15.1347C13.6733 16.5959 11.6915 17.4168 9.62498 17.4168C7.5585 17.4168 5.57666 16.5959 4.11544 15.1347C2.65422 13.6735 1.83331 11.6916 1.83331 9.62516C1.83331 7.55868 2.65422 5.57684 4.11544 4.11562C5.57666 2.6544 7.5585 1.8335 9.62498 1.8335C11.6915 1.8335 13.6733 2.6544 15.1345 4.11562C16.5957 5.57684 17.4166 7.55868 17.4166 9.62516V9.62516Z" stroke="#37313A" stroke-width="2" stroke-linecap="round"/>
</svg>
