<svg viewBox="0 0 85 60" fill="none" xmlns="http://www.w3.org/2000/svg">
<path fill-rule="evenodd" clip-rule="evenodd" d="M18.6834 49.911C18.6834 52.7758 16.9433 54.4942 14.5702 54.7401V54.4943C15.7574 54.228 16.9446 53.0612 16.9446 50.2575C16.9446 47.0856 15.7166 45.5099 13.8747 45.5099C12.3397 45.5099 11.3983 46.5748 11.3983 48.2117V51.5479C11.3983 53.2051 12.2174 54.2497 13.4033 54.4943V54.7197C12.5231 54.6178 11.7868 54.2701 11.2136 53.758C10.7436 54.2904 10.0264 54.8012 10.0264 54.4739V41.2948C10.0264 40.5992 9.82131 40.3126 8.98312 40.2298V40.0044L11.3983 39.5547V46.5124C12.0123 45.4691 13.3218 44.9366 14.4275 44.9366C17.3522 44.9379 18.6834 47.3111 18.6834 49.911ZM8.1844 53.3273L8.40987 53.4088C8.28759 54.0228 7.73474 54.7591 6.75261 54.7591C6.75261 54.7591 5.17688 54.8406 5.17688 52.9783V49.4587C2.63939 50.0726 1.41142 50.9312 1.41142 52.2828C1.41142 53.163 1.96426 54.0012 3.17186 54.0012C3.66228 54.0012 4.05208 53.8789 4.3387 53.6942C4.37946 53.7553 4.46097 53.9184 4.50174 54.0012C3.96927 54.4508 3.19224 54.7578 2.31202 54.7578C2.31202 54.7578 0 54.7782 0 52.6496C0 50.6854 1.71841 50.1121 5.17688 49.2115V48.0651C5.17688 46.1416 4.33742 44.934 2.8241 45.3633L2.72219 45.1595C3.43809 44.9136 4.11322 44.934 4.11322 44.934C6.11824 44.934 6.6507 46.6116 6.6507 49.0268V52.7311C6.6507 52.7311 6.65071 53.9387 7.55131 53.9387C7.55004 53.9413 8.06211 53.9413 8.1844 53.3273ZM0.797423 47.7415C0.592335 47.4753 0.551578 47.1275 0.67514 46.8409C0.777047 46.6358 1.0229 46.1862 1.69803 45.7148L1.79993 45.8996C1.51332 46.1658 1.47256 46.3492 1.55409 46.3696C1.75918 46.4104 1.94261 46.4919 2.10693 46.6766C2.39354 47.0447 2.3324 47.5772 1.96426 47.8842C1.59485 48.1708 1.08404 48.1097 0.797423 47.7415ZM23.3698 54.3518C22.6322 54.1684 22.5303 54.1072 22.5303 52.9812H22.5316V44.9394L20.096 45.4095V45.6146C20.9342 45.7165 21.1189 46.0235 21.1189 46.719V52.9812C21.1189 54.0244 21.0769 54.1263 20.2998 54.3518V54.5773H23.3698V54.3518ZM26.0703 46.7381C26.52 46.4515 26.6435 45.8782 26.3569 45.4286C26.1531 45.1216 25.7633 44.9789 25.4372 44.9776C24.8232 44.9776 24.0041 45.2643 23.3086 45.9598L23.4717 46.1649C24.1061 45.6541 24.72 45.5305 24.6385 45.7763C24.5978 46.0018 24.6385 46.2477 24.7608 46.4515C25.0678 46.9024 25.641 47.0247 26.0703 46.7381ZM35.2394 53.3273L35.4649 53.4088C35.3426 54.0228 34.7898 54.7591 33.8077 54.7591C33.8077 54.7591 32.2319 54.8406 32.2319 52.9783V49.4587C29.6944 50.0726 28.4664 50.9312 28.4664 52.2828C28.4664 53.163 29.0193 54.0012 30.2269 54.0012C30.7173 54.0012 31.1071 53.8789 31.3937 53.6942C31.4345 53.7553 31.516 53.9184 31.5568 54.0012C31.0243 54.4508 30.2473 54.7578 29.3671 54.7578C29.3671 54.7578 27.055 54.7782 27.055 52.6496C27.055 50.6854 28.7735 50.1121 32.2319 49.2115V48.0651C32.2319 46.1416 31.3925 44.934 29.8791 45.3633L29.7772 45.1595C30.4931 44.9136 31.1683 44.934 31.1683 44.934C33.1733 44.934 33.7057 46.6116 33.7057 49.0268V52.7311C33.7057 52.7311 33.7057 53.9387 34.6064 53.9387C34.6051 53.9413 35.1172 53.9413 35.2394 53.3273ZM27.8512 47.7415C27.6461 47.4753 27.6053 47.1275 27.7289 46.8409C27.8308 46.6358 28.0767 46.1862 28.7518 45.7148L28.8537 45.8996C28.5671 46.1658 28.5263 46.3492 28.6079 46.3696C28.8129 46.4104 28.9964 46.4919 29.1607 46.6766C29.4473 47.0447 29.3862 47.5772 29.018 47.8842C28.6499 48.1708 28.1378 48.1097 27.8512 47.7415ZM39.2099 54.5773V54.3518C38.4928 54.1671 38.3705 54.106 38.3717 52.9824V44.9394L35.9566 45.4095V45.6146C36.7947 45.7368 36.9795 46.0235 36.9795 46.7394V52.9812C36.9795 54.0244 36.9374 54.1263 36.1604 54.3518V54.5773H39.2099ZM45.1855 54.5773V54.3722C44.4696 54.1875 44.346 54.106 44.346 52.9812V48.2743C44.346 45.8196 43.0977 44.9394 41.3997 44.9394C40.5615 44.9394 39.7016 45.3687 39.0876 45.9827L39.3131 46.2286C39.6813 45.9419 40.1105 45.7165 40.643 45.7165C42.1576 45.7165 42.955 46.7597 42.955 48.3559V52.9812C42.955 54.0244 42.913 54.1467 42.1359 54.3722V54.5773H45.1855ZM55.8883 59.7743V59.9997H52.8387V59.7743C53.617 59.5488 53.6578 59.4673 53.6578 58.424V53.4713C53.003 54.3095 51.8158 54.7604 50.8133 54.7604C47.8669 54.7604 46.5561 52.3656 46.5561 49.7262C46.5561 46.841 48.2554 45.2028 50.5878 44.9583V45.2245C49.4006 45.4703 48.2338 46.534 48.2338 49.3785C48.2338 52.6115 49.421 54.27 51.263 54.27C52.5317 54.27 53.5342 53.3898 53.6578 52.0803V47.6805C53.5559 46.3302 52.7572 45.45 51.7547 45.2245V44.9786C52.5737 45.0602 53.2896 45.3468 53.8629 45.7977C54.2106 45.2653 55.0501 44.8563 55.0501 45.1837V58.424C55.0488 59.5488 55.152 59.5895 55.8883 59.7743ZM58.5902 52.7759C58.0577 52.7759 57.6488 53.1848 57.6488 53.7376C57.6488 54.2497 58.0577 54.679 58.5902 54.679C59.101 54.679 59.5315 54.2497 59.5315 53.7376C59.5315 53.1848 59.1023 52.7759 58.5902 52.7759ZM69.7018 53.3273L69.9273 53.4088C69.805 54.0228 69.2521 54.7591 68.27 54.7591C68.27 54.7591 66.6943 54.8406 66.6943 52.9783V49.4587C64.1568 50.0726 62.9288 50.9312 62.9288 52.2828C62.9288 53.163 63.4817 54.0012 64.6892 54.0012C65.1809 54.0012 65.5695 53.8789 65.8561 53.6942C65.8929 53.7494 65.9631 53.888 66.0073 53.9753L66.0204 54.0012C65.4879 54.4508 64.7109 54.7578 63.8307 54.7578C63.8307 54.7578 61.5187 54.7782 61.5187 52.6496C61.5187 50.6854 63.2371 50.1121 66.6968 49.2115V48.0651C66.6968 46.1416 65.8573 44.934 64.344 45.3633L64.2409 45.1595C64.9567 44.9136 65.6319 44.934 65.6319 44.934C67.6382 44.934 68.1694 46.6116 68.1694 49.0268V52.7311C68.1694 52.7311 68.1694 53.9387 69.07 53.9387C69.0674 53.9413 69.5795 53.9413 69.7018 53.3273ZM62.3148 47.7415C62.1097 47.4753 62.069 47.1275 62.1925 46.8409C62.2944 46.6358 62.5403 46.1862 63.2154 45.7148L63.3173 45.8996C63.0307 46.1658 62.9899 46.3492 63.0715 46.3696C63.2766 46.4104 63.46 46.4919 63.6243 46.6766C63.9109 47.0447 63.8498 47.5772 63.4816 47.8842C63.1122 48.1708 62.6014 48.1097 62.3148 47.7415ZM73.6723 54.5769V54.3514C72.9564 54.1667 72.8329 54.1056 72.8342 52.9808V44.9378L70.419 45.4078V45.6129C71.2572 45.7365 71.4418 46.0435 71.4418 46.7594V52.9808C71.4418 54.024 71.3998 54.1259 70.6228 54.3514V54.5769H73.6723ZM79.1982 54.5769V54.3718C78.4823 54.1871 78.3588 54.1056 78.3601 52.982V48.316C78.3601 45.7989 77.3155 44.939 75.6379 44.939C74.778 44.939 74.001 45.3887 73.4481 46.0434L73.6329 46.2689C73.9602 45.9619 74.3895 45.7161 74.922 45.7161C76.4353 45.7161 76.9678 46.7186 76.9678 48.3555V52.9808C76.9678 54.024 76.9257 54.1463 76.1487 54.3718V54.5769H79.1982ZM84.6617 54.5769V54.3718C83.9458 54.1871 83.8235 54.1056 83.8235 52.9808V48.2739C83.8235 45.8192 82.7994 44.939 81.1014 44.939C80.2211 44.939 79.4224 45.4091 78.8913 46.0638C78.932 46.1046 79.0352 46.2282 79.076 46.2893C79.4237 45.9619 79.853 45.7161 80.3855 45.7161C81.8784 45.7161 82.4312 46.7186 82.4312 48.3555V52.9808C82.4312 54.024 82.3892 54.1463 81.6122 54.3718V54.5769H84.6617Z" fill="#9774E8"/>
<path d="M59.6283 2.24019C59.5888 1.816 59.4105 0.403327 58.7023 0.0721298C58.5507 -0.00175274 58.2437 -0.0794674 57.873 0.172752C57.1176 0.68993 56.6119 1.40583 56.1176 2.09879C55.9775 2.29751 55.8412 2.49242 55.6934 2.68222C54.4362 4.34712 52.9381 5.84134 51.4872 7.28587C50.5306 8.2387 49.5421 9.21954 48.6236 10.2513C46.1639 13.0181 44.1181 16.3645 42.7092 19.9402C42.5576 20.3249 42.4099 20.749 42.2545 21.2013C41.5424 23.2483 40.7412 25.5552 38.889 26.1348C38.8775 26.1386 38.8622 26.1425 38.8495 26.1463C38.8304 26.1119 38.81 26.0762 38.7909 26.0367C38.5807 25.6431 38.3935 25.2508 38.2075 24.8661C37.8839 24.1846 37.4521 23.5591 37.0407 22.9553C36.7872 22.5859 36.5235 22.2076 36.298 21.8267C35.6293 20.7095 35.014 19.5389 34.4726 18.3479C33.8535 16.99 33.3134 15.5773 32.8688 14.1493C32.7058 13.6207 32.5733 13.0525 32.4485 12.5035C32.2383 11.5889 32.0205 10.6475 31.6358 9.78386C31.4065 9.27433 31.102 8.81065 30.8103 8.36735C30.5033 7.90877 30.2154 7.47184 30.0091 6.99033C29.9696 6.90116 29.9428 6.77633 29.9161 6.66296L29.7212 5.86171L29.2308 6.36742C28.5454 7.07567 28.6193 8.19666 28.6703 8.93931C28.6894 9.25012 28.7174 9.5622 28.7403 9.8692C28.8066 10.6437 28.869 11.3749 28.841 12.1417C28.8257 12.5927 28.7938 13.0602 28.7671 13.5391C28.6232 15.8486 28.4626 18.4243 29.6843 20.4306C29.8307 20.6701 29.7148 20.972 29.4524 21.0688C28.9811 21.2446 28.5353 21.5172 28.1404 21.8815C27.6232 22.3566 27.2958 22.9324 27.027 23.4343C26.7939 23.8814 26.5022 24.0648 26.1048 24.3171C25.9838 24.3948 25.8602 24.4763 25.7277 24.5667L24.9685 25.0915L25.8755 25.2661C26.2334 25.3361 26.5914 25.3399 26.934 25.3438C26.9379 25.3438 26.9417 25.3438 26.9455 25.3438C27.5748 25.3501 28.199 25.4915 28.7594 25.7807C29.8307 26.3348 30.9097 27.2711 31.2078 28.8417C31.6128 30.7385 32.1631 32.276 32.9491 33.6492C33.5325 34.6683 34.2764 35.5994 35.2318 36.2809C36.4369 37.1395 37.8241 37.5943 39.2584 37.5943C39.6278 37.5943 40.0011 37.5637 40.3794 37.5013C41.4965 37.3178 42.671 36.9841 43.9168 36.6338C47.1256 35.7255 50.4389 34.7842 53.1343 36.2631C53.319 36.3637 53.5483 36.3141 53.6604 36.137C53.7827 35.9446 53.7114 35.6924 53.5114 35.5829C50.5344 33.9485 46.9142 34.9753 43.7028 35.8835C42.4812 36.23 41.3258 36.5561 40.2507 36.7357C38.6546 36.9981 37.0661 36.6172 35.7273 35.6848C34.8458 35.0708 34.1656 34.216 33.6319 33.2836C32.8867 31.9817 32.358 30.5104 31.9708 28.6889C31.6026 26.7539 30.2562 25.6444 28.9492 25.01C28.376 24.7323 27.7493 24.5795 27.1124 24.5718C27.1085 24.5718 27.1047 24.5718 27.1022 24.5718C27.3277 24.3808 27.534 24.1438 27.7174 23.8011C28.0206 23.233 28.2818 22.8088 28.6665 22.4547C29.3709 21.8089 30.2702 21.5172 31.1301 21.6496C31.916 21.7745 32.6638 22.2649 33.4765 23.1986C33.7172 23.4712 33.9592 23.7782 34.2153 24.1056C35.3286 25.5259 36.5935 27.1335 38.5654 26.9934L38.7247 26.9781C41.2418 26.4915 42.2112 23.698 42.9895 21.456C43.1411 21.0166 43.2888 20.6 43.4328 20.2268C44.8098 16.7365 46.8072 13.4678 49.2071 10.7711C50.1102 9.75966 51.0911 8.78263 52.0363 7.84126C53.5075 6.37762 55.0285 4.8643 56.3164 3.15608C56.4641 2.95737 56.6081 2.75483 56.752 2.55229C57.2271 1.88734 57.6743 1.25679 58.3125 0.813496C58.3519 0.790567 58.3749 0.78292 58.3749 0.777825C58.5379 0.851707 58.7838 1.5485 58.8538 2.31153C59.1379 5.44007 58.4144 9.03994 56.6985 13.013C56.2081 14.1455 55.6667 15.3365 54.9393 16.3403C54.8616 16.4447 54.7597 16.5696 54.64 16.7059C54.4769 16.5925 54.2859 16.511 54.0795 16.4651C53.2579 16.2702 52.3318 16.632 51.7726 17.3645C51.4962 17.7224 51.3751 18.0765 51.407 18.4192C51.4656 19.0574 51.7802 19.2752 52.0375 19.3453C52.7534 19.5402 53.8273 18.6523 54.6018 17.874C54.6323 17.9555 54.6604 18.0485 54.6756 18.1466C54.8705 19.1618 54.7113 20.2675 54.5546 21.3376L54.5151 21.6025C54.04 24.9017 52.0401 30.0812 48.4682 30.8289C48.4058 30.8417 48.3396 30.8544 48.2721 30.8646C48.0683 30.8952 47.8696 30.7499 47.8428 30.5461C47.7982 30.1945 47.6352 29.8481 47.3944 29.6264C47.0989 29.3615 46.7256 29.2914 46.332 29.4277C46.0632 29.5207 45.8734 29.7589 45.8225 30.0621C45.7524 30.4862 45.955 30.9537 46.3435 31.2569L46.3741 31.2799C46.4874 31.3537 46.6034 31.4123 46.7205 31.4595C46.1804 32.1486 45.2238 32.5473 43.8302 32.6734C43.6188 32.6925 43.457 32.8709 43.4697 33.0823C43.4812 33.3002 43.671 33.4696 43.8875 33.4492C45.5868 33.2963 46.7511 32.769 47.4135 31.8442C47.4938 31.7333 47.6186 31.6696 47.7549 31.6722C48.0746 31.6786 48.3778 31.6416 48.6287 31.5907C52.9012 30.6952 54.8514 24.7374 55.2871 21.7108L55.3228 21.4497C55.4896 20.3172 55.6616 19.1466 55.4438 18.0014C55.4221 17.8816 55.3916 17.767 55.3546 17.6587C55.2629 17.3938 55.324 17.0995 55.5011 16.8829L55.5049 16.8791C55.5508 16.8231 55.5941 16.767 55.6349 16.7084C56.3775 15.6626 56.9201 14.4639 57.4131 13.32C59.1812 9.22847 59.9277 5.50121 59.6283 2.24019ZM34.8255 23.6266C34.5643 23.2916 34.3159 22.977 34.0624 22.6853C33.4675 22.0076 32.5326 21.0815 31.2485 20.8841C31.1632 20.8726 31.0778 20.8611 30.9912 20.8535C29.2015 19.0052 29.376 16.2537 29.5403 13.5888C29.5709 13.106 29.6027 12.6322 29.618 12.1723C29.6486 11.3596 29.5785 10.5685 29.5174 9.80678C29.4906 9.50361 29.4626 9.19917 29.4435 8.89217C29.4206 8.53423 29.3887 8.07054 29.4588 7.65527C29.669 8.06417 29.9174 8.43741 30.1594 8.803C30.4473 9.23865 30.7199 9.65138 30.9224 10.1023C31.2804 10.8997 31.4867 11.8029 31.6893 12.6818C31.8179 13.2423 31.9542 13.8257 32.1249 14.3824C32.5797 15.8422 33.1287 17.2855 33.7631 18.674C34.3159 19.8917 34.9465 21.0866 35.6267 22.2267C35.8675 22.6318 36.1362 23.0203 36.3974 23.3986C36.7948 23.9782 37.2063 24.5782 37.5069 25.2036C37.5298 25.2508 37.5515 25.2979 37.5744 25.345C37.7413 25.6953 37.3566 26.0457 37.0215 25.8508C36.1923 25.368 35.5019 24.4865 34.8255 23.6266ZM52.2464 18.595C52.2464 18.5912 52.1993 18.544 52.1802 18.3415C52.1649 18.167 52.2847 17.9721 52.3866 17.8358C52.6974 17.4307 53.1802 17.1861 53.6324 17.1861C53.7216 17.1861 53.8158 17.1976 53.9012 17.2167C53.9674 17.232 54.0336 17.2562 54.0922 17.2829C53.3789 17.9835 52.5152 18.6841 52.2464 18.595ZM46.8059 30.6302C46.5766 30.4391 46.5613 30.1984 46.5881 30.1589C46.7358 30.1041 46.8135 30.1512 46.8721 30.2022C47.0084 30.327 47.0823 30.5754 47.0785 30.7627C46.9855 30.7283 46.8963 30.6811 46.8059 30.6302Z" fill="#9774E8"/>
<path d="M30.1046 24.6288C30.632 24.6683 31.1097 24.3155 31.2893 23.8174L31.3568 23.6314L31.1071 23.6569C31.0613 23.662 31.0154 23.6595 30.9708 23.6493C30.7453 23.5983 30.6027 23.3728 30.6536 23.1474C30.6829 23.0174 30.7708 22.9104 30.8944 22.8569L31.1237 22.755L30.9326 22.592C30.7912 22.471 30.6205 22.3856 30.4396 22.3449C29.818 22.2047 29.1976 22.5958 29.0562 23.2174C28.9034 23.8977 29.3824 24.5753 30.1046 24.6288Z" fill="#6768AB"/>
</svg>
